SCREENSHOTS:
 
http://lnk.co/GM5NC

Video
ID                               : 1
Format                           : AVC
Format/Info                      : Advanced Video Codec
Format profile                   : Baseline@L2.0
Format settings, CABAC           : No
Format settings, ReFrames        : 2 frames
Codec ID                         : avc1
Codec ID/Info                    : Advanced Video Coding
Duration                         : 25mn 38s
Bit rate mode                    : Variable
Bit rate                         : 400 Kbps
Width                            : 368 pixels
Height                           : 272 pixels
Display aspect ratio             : 4:3
Frame rate mode                  : Variable
Frame rate                       : 23.976 fps
Minimum frame rate               : 23.974 fps
Maximum frame rate               : 23.981 fps
Color space                      : YUV
Chroma subsampling               : 4:2:0
Bit depth                        : 8 bits
Scan type                        : Progressive
Bits/(Pixel*Frame)               : 0.167
Stream size                      : 73.3 MiB (86%)
Writing library                  : x264 core 112

Audio
ID                               : 2
Format                           : AAC
Format/Info                      : Advanced Audio Codec
Format profile                   : LC
Codec ID                         : 40
Duration                         : 25mn 38s
Bit rate mode                    : Variable
Bit rate                         : 64.0 Kbps
Maximum bit rate                 : 95.8 Kbps
Channel(s)                       : 1 channel
Channel positions                : Front: C
Sampling rate                    : 22.05 KHz
Compression mode                 : Lossy
Stream size                      : 11.7 MiB (14%)

encoded for iPod,PSP,Zune and other handheld devices...:)